/* XPM */
static char *_pu08_o3n7w[] = {
/* columns rows colors chars-per-pixel */
"60 60 123 2 ",
"   c black",
".  c #010101",
"X  c #020202",
"o  c gray1",
"O  c #040404",
"+  c #050505",
"@  c #060606",
"#  c #070707",
"$  c #080808",
"%  c #090909",
"&  c #0A0A0A",
"*  c #0B0B0B",
"=  c #0C0C0C",
"-  c #0D0D0D",
";  c #0F0F0F",
":  c #101010",
">  c #111111",
",  c gray7",
"<  c #131313",
"1  c #141414",
"2  c #151515",
"3  c #161616",
"4  c #171717",
"5  c #181818",
"6  c #191919",
"7  c #1A1A1A",
"8  c #1B1B1B",
"9  c #1C1C1C",
"0  c #1D1D1D",
"q  c #1E1E1E",
"w  c #1F1F1F",
"e  c #202020",
"r  c #212121",
"t  c #222222",
"y  c #232323",
"u  c #242424",
"i  c #252525",
"p  c #262626",
"a  c #272727",
"s  c #282828",
"d  c #292929",
"f  c #2A2A2A",
"g  c #2B2B2B",
"h  c #2C2C2C",
"j  c #2D2D2D",
"k  c #2E2E2E",
"l  c #2F2F2F",
"z  c #303030",
"x  c #313131",
"c  c #323232",
"v  c #333333",
"b  c #343434",
"n  c #353535",
"m  c #363636",
"M  c #373737",
"N  c #383838",
"B  c #3A3A3A",
"V  c #3B3B3B",
"C  c #3C3C3C",
"Z  c #3E3E3E",
"A  c #3F3F3F",
"S  c #404040",
"D  c #414141",
"F  c #434343",
"G  c #444444",
"H  c #454545",
"J  c #474747",
"K  c #484848",
"L  c #494949",
"P  c #4A4A4A",
"I  c #4B4B4B",
"U  c #4C4C4C",
"Y  c #4D4D4D",
"T  c #4E4E4E",
"R  c #4F4F4F",
"E  c #505050",
"W  c #515151",
"Q  c #525252",
"!  c #535353",
"~  c #545454",
"^  c #555555",
"/  c #575757",
"(  c #585858",
")  c #595959",
"_  c #5A5A5A",
"`  c #5C5C5C",
"'  c #5D5D5D",
"]  c #5F5F5F",
"[  c #606060",
"{  c #616161",
"}  c #626262",
"|  c #646464",
" . c #656565",
".. c #666666",
"X. c #676767",
"o. c #686868",
"O. c #696969",
"+. c #6B6B6B",
"@. c #6C6C6C",
"#. c #6D6D6D",
"$. c #6E6E6E",
"%. c #6F6F6F",
"&. c #707070",
"*. c #717171",
"=. c #727272",
"-. c #737373",
";. c #747474",
":. c #757575",
">. c #767676",
",. c #777777",
"<. c #787878",
"1. c #797979",
"2. c #7A7A7A",
"3. c #7B7B7B",
"4. c #7C7C7C",
"5. c #7D7D7D",
"6. c #7E7E7E",
"7. c #7F7F7F",
"8. c #808080",
"9. c #818181",
"0. c #828282",
"q. c #838383",
"w. c #848484",
/* pixels */
"                                                                                                                        ",
"                                                                                                                        ",
"                                                  + : 9 i g f i 8 : +                                                   ",
"                                          % a T #.4.7.3.>.=.=.>.4.7.4.@.U i $                                           ",
"                                    o y ` 6.>.^ x 6 * o .     . O * 7 v / <.5.( e X                                     ",
"                                o l *.2.L 5 X                             o 7 U 3.$.d X                                 ",
"                              r %.:.c @                                         # m ,.+.0                               ",
"                          $ E 6.B O                                                 @ A 8.I @                           ",
"                        4 -.{ ;                                                         , ..$.1                         ",
"                      a 8.Z X                                                             X G 5.r                       ",
"                    x 9.d                                                                     k 8.f                     ",
"                  j w.t                                                                         s q.p                   ",
"                r 8.y                                                                             d 7.8                 ",
"              : 4.x                                                                                 N 1.=               ",
"            X X.Y                                                                                     ^ [               ",
"            C *.+                                                                                     $ >.b             ",
"          : 8.w                                                                                         i 4.*           ",
"          ^ /                                                                                             ] U           ",
"        2 9.,                                                                                             5 6.;         ",
"        W /                                                                                                 ] K         ",
"      % 6.9                                                                                                 t 3.+       ",
"      z *.                                                                                                  X ,.d       ",
"      { F                                                                                                     I (       ",
"    @ 5.7                                                                                                     r <.o     ",
"    9 4.+                                                                                                     % 5.2     ",
"    M o.                                                                                                        %.l     ",
"    W E                                                                                                         ) K     ",
"    | C                                                                                                         H `     ",
"    &.k                                                                                                         M O.    ",
"    >.p                                                                                                         j &.    ",
"  . ,.y                                                                                                         g =.    ",
"    >.i                                                                                                         j &.    ",
"    &.j                                                                                                         m O.    ",
"     .V                                                                                                         H `     ",
"    Q R                                                                                                         ) L     ",
"    N X.                                                                                                        $.z     ",
"    0 3.O                                                                                                     $ 5.3     ",
"    # 5.6                                                                                                     e 1.o     ",
"      } D                                                                                                     P _       ",
"      c &.                                                                                                  X :.f       ",
"      & 6.7                                                                                                 e 3.@       ",
"        ! ^                                                                                                 ' P         ",
"        2 6.>                                                                                             3 6.:         ",
"          / ~                                                                                             ' R           ",
"          > 8.0                                                                                         y 6.-           ",
"            A %.O                                                                                     # :.M             ",
"            o O.P                                                                                     Q } .             ",
"              > 5.k                                                                                 n 2.-               ",
"                y 8.e                                                                             p 8.q                 ",
"                  z 0.w                                                                         u q.f                   ",
"                    b 7.i                                                                     g 8.k                     ",
"                      f 8.B .                                                             X S 7.i                       ",
"                        7 >.' =                                                         ; } =.3                         ",
"                          % ^ 4.n o                                                 O B 7.E #                           ",
"                              u =.*.j O                                         + x ;.%.e                               ",
"                                O c ;.,.G 1 .                             X 3 J 1.*.k o                                 ",
"                                    O a [ 7.=.R h 2 $ X         X % 3 k W ;.6.' u o                                     ",
"                                          * g Q *.6.7.1.-.$.$.-.1.7.6.&.E d &                                           ",
"                                                . # < e d l l d w < # .                                                 ",
"                                                                                                                        "
};
