/* XPM */
static char *r65tk_fpbpc[] = {
/* columns rows colors chars-per-pixel */
"50 50 240 2 ",
"   c #0D0E0C",
".  c #12120F",
"X  c #141412",
"o  c #1B1613",
"O  c #191916",
"+  c #1B1B1A",
"@  c #161717",
"#  c #0F100E",
"$  c #251C15",
"%  c #20150E",
"&  c #1D221B",
"*  c #22221D",
"=  c #2B231A",
"-  c #25281F",
";  c #37271C",
":  c #1F2020",
">  c #242521",
",  c #2B2A23",
"<  c #292724",
"1  c #352A24",
"2  c #383429",
"3  c #393936",
"4  c #2C2D31",
"5  c #422F1C",
"6  c #422C24",
"7  c #483429",
"8  c #52362B",
"9  c #543B2B",
"0  c #463D34",
"q  c #563D34",
"w  c #653A36",
"e  c #6E3431",
"r  c #3E403B",
"t  c #48453A",
"y  c #564738",
"u  c #5D553B",
"i  c #50442F",
"p  c #664639",
"a  c #695A3D",
"s  c #76503C",
"d  c #3C3B45",
"f  c #403F47",
"g  c #3F4049",
"h  c #474748",
"j  c #574944",
"k  c #575747",
"l  c #4A4C56",
"z  c #53525B",
"x  c #4F514E",
"c  c #684C43",
"v  c #764C46",
"b  c #695947",
"n  c #795548",
"m  c #7A5C55",
"M  c #645951",
"N  c #5D6655",
"B  c #5D604D",
"V  c #6A6248",
"C  c #766849",
"Z  c #6A6D56",
"A  c #666957",
"S  c #796959",
"D  c #7A735C",
"F  c #7F7247",
"G  c #595A65",
"H  c #5A6978",
"J  c #59636F",
"K  c #69676B",
"L  c #7C6964",
"P  c #6B7166",
"I  c #71746B",
"U  c #767464",
"Y  c #6B6B75",
"T  c #676976",
"R  c #726E73",
"E  c #6B747B",
"W  c #737476",
"Q  c #7A767C",
"!  c #7B797F",
"~  c #757479",
"^  c #605F67",
"/  c #873E3B",
"(  c #844C3D",
")  c #93433E",
"_  c #874D47",
"`  c #8B5B4B",
"'  c #865848",
"]  c #955D58",
"[  c #91554C",
"{  c #A45B56",
"}  c #88664C",
"|  c #96654B",
" . c #8B655B",
".. c #886657",
"X. c #926554",
"o. c #9C6A54",
"O. c #946B5B",
"+. c #976758",
"@. c #88775A",
"#. c #9C715A",
"$. c #81714A",
"%. c #A56C55",
"&. c #A87359",
"*. c #B37B5D",
"=. c #AE6852",
"-. c #836D63",
";. c #896D65",
":. c #966B65",
">. c #84746B",
",. c #887967",
"<. c #967568",
"1. c #827A7A",
"2. c #8C7974",
"3. c #927A75",
"4. c #9C7A74",
"5. c #997C78",
"6. c #A77865",
"7. c #B87A66",
"8. c #A37C75",
"9. c #AB6D69",
"0. c #C27F63",
"q. c #8F8559",
"w. c #8E836B",
"e. c #8C8366",
"r. c #928465",
"t. c #92856C",
"y. c #94896C",
"u. c #9C8C6E",
"i. c #998469",
"p. c #8A8777",
"a. c #958A74",
"s. c #9B8D7B",
"d. c #968976",
"f. c #9C9277",
"g. c #AB836C",
"h. c #B98567",
"j. c #A88478",
"k. c #B68A78",
"l. c #A39475",
"z. c #A79A7B",
"x. c #AA9B7C",
"c. c #A39679",
"v. c #AD9A73",
"b. c #AEA07B",
"n. c #B3A57B",
"m. c #C7896C",
"M. c #C79379",
"N. c #737481",
"B. c #7D7B83",
"V. c #7A7B89",
"C. c #6C7989",
"Z. c #5E7181",
"A. c #827E82",
"S. c #807E89",
"D. c #7A808A",
"F. c #768294",
"G. c #838285",
"H. c #84838B",
"J. c #8B8886",
"K. c #9C8481",
"L. c #988B86",
"P. c #999688",
"I. c #838793",
"U. c #999994",
"Y. c #8C979F",
"T. c #AD9D81",
"R. c #A49C8B",
"E. c #AA9E8C",
"W. c #A49488",
"Q. c #B79787",
"!. c #AC9E93",
"~. c #A39993",
"^. c #BA9C93",
"/. c #AE8A84",
"(. c #ADA084",
"). c #AAA28A",
"_. c #B3A484",
"`. c #B2A48C",
"'. c #B5AA8D",
"]. c #BBAC8C",
"[. c #B8A885",
"{. c #BFB38B",
"}. c #ABA39B",
"|. c #B3A495",
" X c #B5A39B",
".X c #B9AA95",
"XX c #BDB094",
"oX c #9094A3",
"OX c #9DA6A6",
"+X c #A7A8A4",
"@X c #B4A6A2",
"#X c #B8ACA5",
"$X c #BCB2AC",
"%X c #B9B2A1",
"&X c #BCB8B9",
"*X c #AEB2B9",
"=X c #C69A87",
"-X c #C89C92",
";X c #C7A58B",
":X c #C3B38D",
">X c #C9A799",
",X c #C3B494",
"<X c #CCBC9C",
"1X c #C7B997",
"2X c #D5A993",
"3X c #C4ABA3",
"4X c #C9ACA3",
"5X c #C7B5AA",
"6X c #C5BBB6",
"7X c #D1B3AA",
"8X c #D1C29E",
"9X c #CFC29C",
"0X c #CDC4A8",
"qX c #D4C4A3",
"wX c #DCCCAA",
"eX c #D7C9A6",
"rX c #C9C1BD",
"tX c #DED4AE",
"yX c #E1D1AE",
"uX c #E2D5A6",
"iX c #E4D4B3",
"pX c #E9DAB7",
"aX c #E5D4B2",
"sX c #EFE0BD",
"dX c #BCBBC0",
"fX c #C1BFC2",
"gX c #C5C2C3",
"hX c #CBC4C3",
"jX c #CBC8CB",
"kX c #D2CCCD",
"lX c #D1C8C6",
"zX c #CFCED2",
"xX c #D4D3D6",
"cX c #CFD0D5",
"vX c #E3DFC2",
"bX c #F6E7C5",
"nX c #F1EBD1",
"mX c #FFFFFD",
"MX c #FCFBF2",
"NX c #F9F6E2",
/* pixels */
"iXpX:X(.yXq.XXmXmXn.C u 2 2 - $ & * - = X O X . . .   . . o o X X < + + + @ + @ @ @ X @ @ X - , & - ",
"iXwX<XqXbXb.e.nXmXiXF V i 2 = & & & - - O O & & o .       . O O + < + + + X @ X X X . . @ , r 3 & & ",
"iXeXeXiXsX'.k [.MXMXv.C t , 2 - * - & , ; ; ; = = = = o     . X O < O @ X X X X X X X $ 2 r t 2 > & ",
"iXqXyXpXsXNXy.Z vXmXtXF u r ; - & , 2 ; ; $ % % $ $ $ $ = * O . O * @ X # X X X X X # 4 r t h 3 > & ",
"tX9XeXiXtXNX0Xu.{.NXmXl.u i 1 , = 7 ; ; = ; 5 ; ; = $ % o $ = . @ + + @ . . . . # # # 4 0 h h 3 > & ",
"wX9XwXsXtXuX0XtXpXsXmXnXF u 2 2 i ; 5 5 7 9 9 9 5 5 ; = % o o = < : X X . X . . # X X 3 t h k t > & ",
"tX,XeXsXeX,XeXsXsXeXnXmX{.a i i 5 5 y p p i i 8 8 8 9 8 1 = o . < $ . . . @ # . X # X 2 h x M t , - ",
"wX{.0XsXeX'.0XsX9X:X1XMXNXq.C 5 i s } } #.#.( C ( | | ` n s i % o $ @ o @ @ @ + + + + 2 k A S h , - ",
"wX].eXpX9X).0XpXeXsXn.sXmXeXi i } k.=X=X2Xn.h.*.*.=.%.| | } ..q o + + @ + + + + + + & 3 M P ,.k 4 , ",
"eX].qXiX9Xf.0XpXsXnXtX{.mX5X5 $.Q.2X2X;XM.M.h.h.*.&.&.| o.X. .S 1 @ @ o X @ o + + O O 3 D w.a.k - & ",
"eX[.7XuX1Xa.0XiXsXbXsXb.sXe.i k.<X2X2X;XM.M.h.h.h.&.%.%.X.X... .c 1 X X @ o @ X X . + r U c.c.b P z.",
"qX(.9XiX,Xp.0XtXpXsXpX].l.C ..-X7X4X1X2XM.M.m.h.h.=.%.| o.X... .m j o X X X X @ X X < t e.W.T.b b.uX",
"qXb.<XwX,Xw.0XwXiXiXiXtXr.$.d.#X7X2X>X;X;XM.m.h.h.*.&.%.o.+.+.;.;.M < # # # X # X + > t p.R.(.Z N y.",
"qXb.1XwX].p.0XtXiXtXwXbX<X@.L.3X7X>X>X2X=XM.m.h.7.*.%.&.%.O.O.:.2.-.1 + + + + + + * , t y.R.(.C k Z ",
"0Xb.,XwX[.p.5XwXiXeXeXbXpX..U.5X7X>X>X>X=Xk.g.6.*.&.%.o.X... .<.2.2.0 + + + + + + + * k p.).).Z r k ",
"<X:X,XwX[.U XXwXwXqXqXpX8XU ~.5X7X>X;X=Xg.6.6.&.o.` p 7 1 8 c S 2.3.j $ : : : : > + * k a.R.).D k N ",
"<X:X{.eX[.I %XqXwX<XqXwXQ.L ~.7X5XQ.#.p 7 8 v ` ] p 7 2 8 q q M ;.>.0 : : : : : $ @ : k p.).).D k Z ",
"<Xn.[.qXn.P XXqXeX1X<XeXt.L ~.7X3X8.Z p 8 1 7 ..s 6 8 i 0 q c 1 j j f ; v q # @ X $ 2 k s.).).D k N ",
"1Xn._.qX_.P %XqXqX1X1XqX@.S ~.fX#XL m j 1 8 7 1 8 $ q 6 1 4 j 7 m 3.L v 9._ + $ 2 3 7 k f.P.).D k N ",
"<Xb.b.qXb.U .X0X<X,X,XqXr.-.:.-Xb 7 ..j 7 8 c m m.8 q e w m m c ] 4.A.:.] ) ; 4 0 0 q A P.U.).@.k N ",
"<Xy.z.qXb.U .X1X<X,X].2XM.m.A.S.k.c j.<.` | ' 8.0.( 8 s p c p v  .:.5._ +.) 2 0 t j k S L.P.).U k N ",
"<Xr.c.<Xx.P %X1X<X:X].m.{ /.-X4X>Xk. .j.6.' c =X0.[ c 8 w w v [ ] 4.5.e [ _ 2 k V V C ,.f.P.).D k N ",
"<Xe.l.<Xx.U #X1X1X].'.m.=.-X8.4X>X2Xk.] s w #.-X=.] ' _ _ | ] +.:.5.K.v e v 2 D ,.D ,.<.P.P.R.e.k N ",
"1Xt.u.<Xx.P @X,X,X:X_.,X0.7.{ 4X4X4X-X7.[ ) =X/.:.]  .[ ( ( { :.8.5.K.e _ s i t.l.g.l.r.P.P.R.U k N ",
",Xt.u.1Xz.P @X,X,X[.T.,Xk.=.{ 7X>X4XQ.%.[ { 9.] :.v v v _ _ [ :.8.5.5.` :.v t u.v.r.@.r.P.U.).,.N N ",
",Xr.a.1Xz.P +X,X,X`._.].S m.7.7X3X^.k.` [ 0.A.A.[ v m v v _ v :.5.8.A.+.] m i l.@.V a w.P.P.R.,.B N ",
",Xw.t.,Xc.P }.,X].[.T.:Xx 8.2X4X3X^.8.] 8././.7.[ _ _ m  . .' :.8.5.A.` 8.C u c.@.V a w.P.P.R.w.N N ",
",Xt.y.,Xc.P +X,X.X_.z.:Xk W.2X7X3X^.k.:.4.8.:.[ _ e w w w p [ :.8.8.K.M ,.@.u s.@.a V w.P.).).w.N N ",
"XXy.y.{.v.P }.XX'._.z.:XA P.-X-X3X-XQ.o.' :.9.{ _ / e p v v | 9.4.8.A.S w...a f.q.a a a.P.U.).w.N N ",
"XXr.a.].l.I }.XX'._.z.].~ }.:X X3X^.^.&.#.^.^.9.{ ] :.:.:.' X.<.4./.K.C.! @.a s.,.C V y.P.).).w.Z N ",
"].y.y.].l.I OX{._._.f.{.D.+X:XQ.3X^.^.8.g.^.Q.8.%.+.O.:. .O.:.<.5.K.D.F.J.@.a s.@.V V w.P.).).e.V N ",
"XXr.r.[.l.I OXXX[.(.c.].E ).:XT.@X XQ./.Q.-X/.6.9.+.| O.O.:.:.4.5.J.E H p.@.C a.r.C V a.P.).}.y.Z N ",
"].y.y._.l.P }.XX(.(.l._.W U.].x.@X@X^.!.^.>X^./.7.%.o.+.O.<.2.4.s./.Y H J.r.C s.r.C C a.P.E.!.w.Z N ",
"'.y.r._.l.I OX'.(.b.l._.W U.[.z.^.$X@X^.^.#X-X=X6.#.#.O.:.3.2.5.A.A.Z.H p.<.C s.<.F V d.R.E.!.t.Z N ",
"'.u.r._.f.I OX'.(.x.f._.I U.[.z.6X5X#X^.!.!.^.K.:.<.:.;.>.2.3.d.K.1.T Z.J.r.C j.t.F V d.R.R.!.t.Z P ",
"'.r.,._.f.I +X|.T.T.f._.~ U._.|.kX7X#X@X@X!.~.3.-.L ..-.>.2.3.3.K.L z Z.J.t.F L.t.F C d.P.!.!.w.Z N ",
"'.r.@.(.u.I +X'.c.T.u.(.W P.b.rXxX5X5X@X@X!.U.K.,.-.L -.>.2.2.3.K.j l C.G.i.$.L.t.$.C d.R.E.!.w.Z P ",
"`.r.U x.u.I OX).l.x.a.b.B.U.|.xXxX$X].#X^.~.L.p.2.,.-.-.>.2.3.3.>.1 g V.J.i.$.L.a.$.C s.~.E.!.t.Z A ",
"`.y.@.x.f.I OX'.l.T.f.b.Y.U.rXxXcXjXg.k.!.!.L.d.2.L U >.>.2.2.2.n % h I.A.2.@.P.i.@.C s.U.E.|.w.A P ",
"`.y.U z.u.I OX.Xf.W.u.).*X&XxXxXcXcX%Xo.6./.W.L.w.>.;.;.>.;.;.m 0 % G S.E K ~ J.a.@.C P.}.E.}.t.A P ",
"`.t.U z.u.W OX'.a.x.R.#X@XlXkXzXzXzXjX4.| o.<.,.2.;. .;.;.;.m c 6 1 T V.N.Y K R B.Q >.U.}.!.|.t.Z P ",
"`.w.D z.u.D.OX|.).6XgX@X XhXkXkXzXjXjX@X} | X.} .... .;. .S v q 1 j V.S.N.Y K T K Y R ! J.L.~.a.Z K ",
"`.t.D f.y.J.&X6XkX6X#X6X3XjXjXkXzXgXfXfX<.` o.o...O. . .m v y 8 6 N.I.S.V.N.T Y K Y R R Q 1.A.p.>.K ",
").y.D f.).%X6X6XlX5X XgX6X6XkXkXgXfXfXjX5X..} O.X.}  . .b c p 8 K S.l V.S.N.Y Y K R R R 1.A.Q Q A.A.",
").y.p.6XrX6X6X6XhX5X!.6XjXgXzXhXfXgXkXdXG.K.<.o.O.} } n v v y c oXd + g V.S.N.N.K R ~ R R V.~ Q A.A.",
"|.5XrXrX5X$XgX6X6X$X@X5X6XgXjXhXkXgXJ.3 @ T oXU.6.o.| ` ` s p 1.^ 4 z 4 4 T V.S.R K ~ R >.B.R ~ N.A.",
"hXrX6X6X$X#X&XdXfX#X X.X6XjXjXgXI.d > 3 d d I.Y.oX&.| X.[ s A.V.d T z l d 4 l N.B.R W R ! V.B.B.A.>.",
"hXrX$X$X$X#X X$XdX&X X X$XfX+XE d d l l K T z G I.J.%.| _ S.oXz T Z.l G G z g l G Y B.A.A.S.B.A.A.1.",
"5X&X&X%X#X#X@X@X$XdX*X|.}.B.H C.N.Y Y K Q H.I.K z C.5.| O.Y.N.T N.z ^ T ^ ^ K T G J N.A.S.S.S.S.A.A.",
"6X X$X&X X@X@X}.#X&X&X}.|.B.N.V.I.H.G.G.G.H.oXU.R z N.+.3.oXY R G T N.N.N.A.A.A.;.N.S.A.S.S.S.S.A.1."
};
