/* XPM */
static char *rx3c5_bzoxg[] = {
/* columns rows colors chars-per-pixel */
"50 50 67 1 ",
"  c #9E0001",
". c #A00405",
"X c #A10708",
"o c #A20B0C",
"O c #A40F10",
"+ c #A61415",
"@ c #A71718",
"# c #A71819",
"$ c #A91B1C",
"% c #AA1F20",
"& c #AB2223",
"* c #AD2728",
"= c #AF2B2C",
"- c #B02E2F",
"; c #B02F30",
": c #B13233",
"> c #B33738",
", c #B43B3C",
"< c #B74142",
"1 c #B94647",
"2 c #B94748",
"3 c #BA4B4C",
"4 c #BC4F50",
"5 c #BD5353",
"6 c #BF5859",
"7 c #C15B5C",
"8 c #C25F60",
"9 c #C36364",
"0 c #C56768",
"q c #C76B6C",
"w c #C86E6F",
"e c #C86F70",
"r c #C97374",
"t c #CC7B7B",
"y c #CE7F80",
"u c #CF8283",
"i c #D08586",
"p c #D18788",
"a c #D28B8B",
"s c #D48F90",
"d c #D59393",
"f c #D79899",
"g c #D99D9D",
"h c #DCA4A4",
"j c #DDA7A8",
"k c #DEAAAB",
"l c #E0AFAF",
"z c #E2B4B4",
"x c #E3B7B8",
"c c #E4BBBB",
"v c #E6BFC0",
"b c #E7C1C2",
"n c #E8C6C6",
"m c #E9C7C8",
"M c #EACCCC",
"N c #ECCFD0",
"B c #EED3D3",
"V c #EFD7D8",
"C c #EFD8D9",
"Z c #F1DDDD",
"A c #F2DFE0",
"S c #F4E4E4",
"D c #F6EAEA",
"F c #F8EEEE",
"G c #F8EFF0",
"H c #FAF5F5",
"J c #FDFCFC",
/* pixels */
"...                                               ",
".+<111111<<2112<11111111112<11112<1<222<1111111,  ",
" 1HJHHHHGJJHHHJHHHHHHHJGHSGJJHHHGJJGHHJHHHHHJHJN% ",
" 1HJJJJJJJJJJJJJJJJJJJJJJdqDJJJJJJJJJJJJJJJJJJJB$ ",
".1JJJJJJHJJHJJJJJJJJJJJJJq 0GJJJJJJJJJJJJJJJJJJB% ",
".1JJJJJJJJJJJJJHJJJJJHJJJ5  sJJJJJHJJJHJJJJJJJJB# ",
" 1HJJJJJJJJJJJJJJJJJJHJJA* O*CJJHJJJJJJJJJJJHJJB# ",
" 1JJJJHJJJHJJJJJJJJHJJJJx %u pJJJJJJJJJHJJJHJJJB$ ",
" 1HJJHJJJJJJJJHJJJJJJJJJw 4V%<GJJJHJJHJJHJHJJJJB@ ",
" 1JJJJJJJHJJJJJJHJJJJJJV* jJ1#VJJHJJJJJJJJJJJJJB@ ",
".2JJJJJJJJJHJJJJJJJHHJJr 6GJw zJJJJJJJJJJJJJJJJB$ ",
".1JJJHJHJJJJHJJJJJJJJJc+*VZSp gJJJHJJJHxSJJJJJJB$ ",
" 1JJJJJJHJJJHJJHJJJJJZ>OjJrZa fJJHJJJB6=VJJJJJJB@ ",
" 1JJJJJJJJJJJJJJJHJJZ3 pJk<Dr gJJJJJj* :FJJHJJJB$ ",
" 1HJJJJJJJJJJHJHJJJN< rGZ;rJ5ovJJJHd@  6HJJJJJJB@ ",
" 1JJJJJHJJJJJJJJJJm; tGJq$MS*:DJJJd+5< uJJJJJJJB@ ",
" 2JJJJJJJJJGJJJJJN:XtGJkowJk rJJJj+1B, lJJJJJJJB+.",
" <JJHJJJJJJJJJJJD4.rHJZ:%VJ6 xJJm**MS* cJJJJJJJB+.",
" 1JJJJJJJJJJJJJJf.5GJHw.yJM@%ZJG5 gJS* cJJHJJJJB@.",
" 1JJJJHGHJJJJJJD,#MJJbO-ZJy <GJh 2FDD: kJJJJJJJB+.",
" 1HJJJZ47gSJJJJnO0JJH0.yJH1 9JG<ohFfH5 uJJJJJJJB@.",
" 1JJJJG6  -sSJJhXjJJZ&OmJG1.qJc :FM9Hp 5JJJJJJJB+.",
" 2HJJJJho @ ,lJsObJJc -SJJe 4Jr eJz5Hm+%BJJJJJJB+.",
" 2JJJJJV$&xrOOw8OMJJkX:DJJc *Z1 fJl>FH3 pJJJJJJB@.",
" 1JJJJJD-OMJgO oovJJv $BJJG6 a* kJz&MJko;ZJJJJJB+.",
" 1HJJJJF>OMJSu   jJJA* iJJJV-$O gJM#dJG3 uJJJJJB+.",
" 1JJJJJF,#NDpB-  aJJJw $dMDJl#  wJD;3HJc+$cJJJJB@.",
" 1HJJHJD:*SH3lt &jJJM6   O,gGh+ :DH7#BJJr <DJJJB+.",
".1JJJJJC%4JH<rc >DCr$O>66<# eGdoolJd dJJS: aJJJB+.",
".1JJJJJl uJG,5C% 9- <xDJJGb2 sJ8 wJM+5HJJko*SJJB@.",
" 1HJJJH9ovJD;5D,   8SJGVmSJZ:&Cn+;DG,%BJJF< hJJN+.",
" 1JJJJM$:DJS&6H5  2SJz2$O*fJd fG:+mJt kJJJr tJJN+.",
" 1HJJJu rHJB+eJ9 +zJh@ :3#+cB+qH3 jJl rJJJa 0JJB@.",
" 1JJJF>.kJJzXaJw ;DA*ouDJh pA$8J5 gJB#3HJJd 0JJB+.",
".2JJJB+$BJJd.kJt :Hl 3Fjde+zM+rJ3 hJC&:DJJd rJJB@.",
".1JJJbo:DJJtocJu ;Dk.qH5o*dHu jD=ocJnO:DJJe iJJB+.",
" 1JJJbo<HJJwomJd &ZZ$-ZSnSJz#>Dco*AJf 2HJD:ocJJB+.",
" 1JJJB+>FJJqOmJzoohJi.3cBbu$$zJ6 6HH6 tJJk.<FJJB+.",
" 1HJJD:+bJJrXxJD> :VHi$o+  :zJjOokJB$ocJF1okJJJB@.",
" 1JJJJt 3DJu tJJk+ <MJMt56fDHj& 9HJt 2FJaorJJJJB+.",
".1JJJJV; rHko*VJJaO &tmZAZZz7o.3SJM$olJk&wFJHJJB@.",
" 1JJJJJb:OgF3 5SJHh:. o&**$..+wSJS2 rJStkHJJJJJB+.",
" 1HJJJJJSjgHB> 2mJJSa1&+O+$:wbHJZ5 7DJHHJJJJJJJB@.",
" 1HJJJJJJJJJJB3 $tMHJJZMmmVDJJDl:o0SJJJJJHJJJJJB+.",
" 1JJJJJJJHJJJJDp&.@3ilcnbnckaw>X*fHJJJJJHJJJJJJB@.",
" 1JJJJJHJJJJJHJJBt-..XoXooX..X-iVJJHJJHJJJJJJJJB+.",
".2HJHJJJJJHJJJJJJJSzt7,--:,7icSJJJJJJJJJJJJJJJJB@.",
".<SDDDDDDDDDDDDDDSDDDZZBMBZSDDDDDDDDDDDDSDDDDDDn@.",
".o*-**--*--*--*--**---*--*-*--*-====-=-**--*---&..",
"...... . .  .   ..     . .. .   .      . .  .   .."
};
