/* XPM */
static char *b975n_ixrxm[] = {
/* columns rows colors chars-per-pixel */
"50 50 223 2 ",
"   c #2F2D32",
".  c #312E3A",
"X  c #333234",
"o  c #3C3434",
"O  c #36343D",
"+  c #39353C",
"@  c #3C393E",
"#  c #35302D",
"$  c #423C3E",
"%  c #463936",
"&  c #4F3837",
"*  c #643E34",
"=  c #51433D",
"-  c #6A443A",
";  c #353642",
":  c #393643",
">  c #363946",
",  c #3B3A43",
"<  c #36394A",
"1  c #3C3D4A",
"2  c #323749",
"3  c #423D44",
"4  c #413E4B",
"5  c #4B3D41",
"6  c #523E40",
"7  c #3F414D",
"8  c #3F4151",
"9  c #3F4F6B",
"0  c #444245",
"q  c #4B4544",
"w  c #4E4A46",
"e  c #43424B",
"r  c #49444C",
"t  c #4E4B4B",
"y  c #534544",
"u  c #514B47",
"i  c #524D4A",
"p  c #584E4B",
"a  c #5A4E46",
"s  c #55514D",
"d  c #5A524C",
"f  c #434552",
"g  c #4A4652",
"h  c #464955",
"j  c #4C4B54",
"k  c #4B4C5A",
"l  c #474A5B",
"z  c #534E53",
"x  c #534E5A",
"c  c #4E505D",
"v  c #555153",
"b  c #5B5453",
"n  c #55525C",
"m  c #5A545D",
"M  c #5D595C",
"N  c #5F5954",
"B  c #694842",
"V  c #775146",
"C  c #635B5B",
"Z  c #645B56",
"A  c #70554C",
"S  c #6D645C",
"D  c #726359",
"F  c #4C5163",
"G  c #4C556A",
"H  c #5C5661",
"J  c #5D5A62",
"K  c #555764",
"L  c #505E74",
"P  c #635C65",
"I  c #655E69",
"U  c #685F60",
"Y  c #576379",
"T  c #666263",
"R  c #6B6364",
"E  c #66616A",
"W  c #6B636C",
"Q  c #6B686A",
"!  c #726662",
"~  c #70676B",
"^  c #726A6C",
"/  c #786B63",
"(  c #7B726C",
")  c #6C6570",
"_  c #6C6B70",
"`  c #736B74",
"'  c #766E74",
"]  c #7B7373",
"[  c #7B737C",
"{  c #767374",
"}  c #9C5C35",
"|  c #9C5E3B",
" . c #965937",
".. c #935328",
"X. c #A15F39",
"o. c #9E603E",
"O. c #A26237",
"+. c #A2623C",
"@. c #AB6B3F",
"#. c #8A5A46",
"$. c #8B654E",
"%. c #8A6447",
"&. c #9D6242",
"*. c #93634B",
"=. c #9A664C",
"-. c #976848",
";. c #876A58",
":. c #976D54",
">. c #907058",
",. c #A26542",
"<. c #A46A46",
"1. c #AB6B45",
"2. c #A46A4A",
"3. c #AB6E4A",
"4. c #AE724D",
"5. c #A5714F",
"6. c #B57343",
"7. c #B2744D",
"8. c #B9764B",
"9. c #B7794D",
"0. c #BB7B4E",
"q. c #B97545",
"w. c #AB7452",
"e. c #A87857",
"r. c #B47651",
"t. c #B67852",
"y. c #BC7C52",
"u. c #BD7E59",
"i. c #B27E5B",
"p. c #85756C",
"a. c #867C77",
"s. c #97766A",
"d. c #A87C61",
"f. c #C27C4C",
"g. c #C17E52",
"h. c #B68154",
"j. c #BD8154",
"k. c #BE815B",
"l. c #BE895C",
"z. c #88817D",
"x. c #978478",
"c. c #97816D",
"v. c #B88966",
"b. c #AC8C7A",
"n. c #B49478",
"m. c #AF8870",
"M. c #C38154",
"N. c #C3845C",
"B. c #C78959",
"V. c #CA935D",
"C. c #DA965C",
"Z. c #E7A25E",
"A. c #C38861",
"S. c #C8966D",
"D. c #D99A66",
"F. c #C69A7B",
"G. c #E19E63",
"H. c #DEA679",
"J. c #DAA16A",
"K. c #EBA764",
"L. c #E7A469",
"P. c #F3AC6E",
"I. c #F0AB66",
"U. c #F5B176",
"Y. c #587499",
"T. c #526888",
"R. c #7B7882",
"E. c #6E7482",
"W. c #5A7CA5",
"Q. c #867C89",
"!. c #5B81AC",
"~. c #5D88B7",
"^. c #6785AB",
"/. c #668BB7",
"(. c #6A94C5",
"). c #6E9ACA",
"_. c #6A95C6",
"`. c #729BCB",
"'. c #618FC0",
"]. c #77A3D3",
"[. c #7BA6D8",
"{. c #7FADE0",
"}. c #8D8A8B",
"|. c #888385",
" X c #938984",
".X c #968B88",
"XX c #98918C",
"oX c #9A9696",
"OX c #928F91",
"+X c #B69988",
"@X c #A39C98",
"#X c #A59286",
"$X c #ABA19F",
"%X c #BDA390",
"&X c #9E9DA3",
"*X c #B7B4B4",
"=X c #B2AEAA",
"-X c #C9AA96",
";X c #F5BA84",
":X c #F8BC85",
">X c #EDB889",
",X c #C7B7A7",
"<X c #FECA9E",
"1X c #C4C0BB",
"2X c #8AAEDE",
"3X c #96A7C5",
"4X c #89B6E7",
"5X c #89B7E7",
"6X c #B0C5DC",
"7X c #98C3F1",
"8X c #9EC4EF",
"9X c #B5CCE4",
"0X c #A9D3FB",
"qX c #B6D9F9",
"wX c #ABCAEE",
"eX c #CCC8C3",
"rX c #CFD1D1",
"tX c #E1DDD8",
"yX c #EFE4D8",
"uX c #C9DCEA",
"iX c #E1DFE0",
"pX c #C7E6FF",
"aX c #F3F0ED",
/* pixels */
"t.t.r.r.r.t.r.r.r.r.w.w.3.7.w.5 < < < > 2 < > : > > : 4 =.1.2.2.<.&.,.,.+.+.X.o.o.o.X.X.X.X.o.X.X.+.",
"u.u.u.t.t.t.r.r.r.7.4.r.4.r.w.5 < < < > : < < : ; ; < 3 =.1.2.<.<.&.<.,.,.&.,.| o.o.,.o.,.X.X.X.X.O.",
"3.r.r.r.r.r.t.r.t.7.r.t.t.t.r.6 < > : ; : 2 2 : ; > : 3 =.<.,.<.<.<.&.,.o.,.,.&.o.X.o.X.,.X.,.X.} O.",
"7.3.3.1.3.2.1.2.1.<.<.3.3.3.5.6 2 > > > < : 2 : : > : r =.,.2.2.<.<.,.,.,.o.X.,.,.,.,.o.X.X.,.X.X.O.",
"A.A.A.u.g.u.u.u.t.t.r.3.3.3.&.B 6 6 4 : + : ; ; : : : 4 *.<.2.1.=.<.<.,.,.,.,.o.o.,.+.o.o.+.+.,.+.O.",
"u.u.u.A.u.u.u.u.k.k.u.y.u.t.t.u.y.y.w.2.=.*.#.#.V B * * #.X.&.&. .&.&.&.o.,.&.,.,.,.+.,.,.X.+.X.O.O.",
"u.u.u.u.u.u.u.u.k.y.t.t.t.y.y.t.t.t.7.8.8.t.g.r.r.3.4.3.,.2.,.&.o.| | o. . . .} X.}  .} X.| X.X.} O.",
"A.u.g.u.g.u.g.u.u.j.y.y.t.y.7.t.7.7.7.7.r.r.4.3.3.2.2.2.2.2.2.5.3.3.2.1.3.<.1.+.X.,.X.} | X. .X.X...",
"u.u.y.y.y.y.y.y.y.y.0.9.8.0.8.t.9.9.4.7.7.7.4.3.3.3.2.2.2.,.5.2.=.#.%.*.&.2.3.3.6.@.@.@.@.@.@.@.@.@.",
"g.A.g.y.y.y.y.y.0.y.y.y.t.t.t.t.7.7.7.7.7.4.4.3.3.2.,.2.2.=.,.=.;.;.D V B #.<.+.o.o.o.O.@.@.O.O.O.O.",
"N.y.y.j.0.9.y.y.y.9.t.0.t.8.r.r.t.7.7.7.7.7.7.4.3.1.2.,.,.<.=.*.c.b.F.v.v.v.A.A.V.h.h.h.h.6.@.6.6.1.",
"g.N.y.y.y.y.y.y.y.9.y.y.t.9.u.f.7.7.4.e.5.5.:.$.$.:.d.:.:.-.-.*.>.-X<XU.:X:X;X;X<XU.;XU.;X<X<X;X;XU.",
"N.M.y.y.y.y.y.8.y.y.y.9.y.t.q.i.b.#Xz.a.z.oX$XXX$XoX XXXx.;.;.>.>.%X<XG.L.P.L.I.Z.P.P.P.I.I.U.I.P.U.",
"N.y.y.0.y.8.y.8.t.y.t.t.8.i.=X3X3X_ |.rXoXOXiX*XoXQ ^ ( Z ! D D x.yXH.L.D.h.e.h.h.h.h.l.l.V.V.V.V.V.",
"g.j.y.y.y.y.y.y.y.y.t.8.n.6X2X/.W.K ^ |._ Q _ s ( N b C p.D S d Z %XH.G.L.%.w w t q = i = w = w a s ",
"y.M.y.y.8.y.y.0.y.y.8.n.wX2X/.W.T.j j j M t t i w d XX1XaXtX=XXXXXx.S.Z.G.%.i i t s i i t w 7 w w w ",
"M.g.0.y.y.8.y.0.h.q.m.9X2X`.^.Y t e e 1 7 q t t M }.D z.@XaXrXx.eXtX-.C.J.D s s s s s t s s t t w w ",
"M.M.y.g.y.0.y.y.j.h.*X7X_./.Y c f f 1 1 7 7 j v c *X^.}.x.*X=X{ ( @X/ l.I. .s v v t s s t t s s s s ",
"j.M.0.y.0.y.0.y.q.h.9X[._.!.G 8 f 1 f 1 7 t = ^.*X^.,X=XT w s N T Q { a.c.D s s s s t t t s s s s w ",
"M.y.y.y.y.0.0.0.0.+X9X`._.T.K 8 1 8 1 f n M T Q &XOXS = X @ X X X w T { N 7 N s v N s 7 t t s t s t ",
"j.M.j.0.0.0.j.j.6.-XwX)._.!.v G F l f F J K E [ v , X X 7 Q oXk X @ t R.N X 7 v s s t s s t u s t w ",
"M.M.M.j.M.0.0.M.q.,X8X_._.!.!.!.W.L c k h j j M 7 7 8 v M z.z.7 0 t T { t X t s t v s s v s t t w w ",
"M.M.0.j.0.j.0.9.q.,X8X[.]._.!.!.T.n x c c h j 7 X 7 v 7 > X X > 0 7 _ v t @ 0 s v s s s t u i t s s ",
"M.M.0.f.M.y.M.j.q.,XqX4X).'.~.!.x k h l c h n f , 7 h t 7 0 0 , @ , K { s   , s h s h t t 7 = s s s ",
"M.M.g.g.f.y.M.M.6.,X0X[.).'.!.c k h 7 8 k t 7 7 t c c 7 7 0 7 s }.M , T { v @ s t s t w w t w i s t ",
"M.M.M.g.f.0.9.0.h.uX7X]._.~.Y 7 7 7 h c c 7 O O , 7 v T { { { }.}.N 7 = M { t t s s t t s i t t w s ",
"M.B.M.M.M.M.M.q.n.qX{.).'.!.F 7 7 7 8 c 7 7 O X , > 0 7 t s s v 0 7 N N N t s N s v s i t i i w t s ",
"M.M.M.f.f.0.M.q.,X0X].).'.!.7 7 7 7 8 8 7 X O > , 0 0 0 0 @ , 0 t T Q Q t # X s s t s i i t i t w w ",
"g.M.M.M.M.0.g.i.uX7X).).~.L t 7 7 7 h 7 7 X O @ > = 0 7 0 @ t N T S s N x.{ o @ t i i s s w = i s w ",
"M.M.M.0.M.M.q.S.uX{.]._.~.L 7 7 7 7 t , O O > @ @ 7 0 = 0 0 s Q { N s oXrX1X@XN = t i s t s i i t w ",
"M.M.M.f.g.M.0.,X0X].]._.!.c 7 7 7 7 > O O @ @ @ @ $ @ 7 = 7 0 $ = s N XXz.z.XXx.S N z.s w u u i t u ",
"B.M.M.f.M.M.B.uX7X].)._.!.F 7 7 7 > O O @ @ @ 7 0 t t v s s N s $ o = S ( ( p.S d d S s u t u t u u ",
"M.M.g.g.g.f.+XpX4X2X].W.T.8 1 1 1 , 7 0 f b N M M C U C P U U b % o & ( x.XXp.a a u q u u w w u u i ",
"M.B.B.M.g.8.eX9XW.T.G 2 2 2 1 1 1 1 7 0 7 0 v M T T C C C C p 5 % o U #X#X/ u a i p p u u w u w w w ",
"g.B.g.M.g.g.#X4 3 . . : < < < < , , @ @ + + @ 0 z U C @ o o o o 3 R #XF.e.= p d a p u u u i t w u w ",
"C.g.B.f.f.f.;.4 4 4 4 : : : 2 2 ; > O + 7 o + + + 3 i v q p v ! A *.G.K.4.a s i u u u u i u w u w u ",
"g.g.g.g.u.s.R.I l 4 4 4 4 : : 2 O @ @ 7 7 @ @ @ @ + + @ s ] x.+Xp.A.I.K.w.u s i u w u t t u w w u w ",
"B.A.b.Q.Q.Q.' ` ) H F 4 4 4 4 4 0 7 f M 0 , , , + O @ + + $ 5 $ & S.K.K.4.y s d s s u u u t w u w u ",
"s.Q.Q.Q.Q.R.) ) ) I K x 4 4 3 : 7 7 P J O , , O O O + o + + o O & J.K.K.<.a s i s u s t u w t u u u ",
"Q.Q.p.' ` ` ) ) ) I I I H g 4 4 @ @ 7 , , , O O O + O O + @ @ 3 % v.D.G.<.w s s u s u w s t u u u u ",
"` ) ) ) ` ) W W ) I I I H H m x r @ : > O : , , : : O 3 $ 3 $ 3 y / a.n.;.y p p p u u s t w w w u u ",
"` I I ) ) I I I I I I I P H x x 4 : @ X O O O , : : + + + : 5 C U ' ] ] ] p u p u s s s i w w s a s ",
"H I I ) I H P H H H I W P x H m z 4 : 3 @ O O O O O . X + 4 P W ~ ~ ( ' a.R i i u s p u i w w s u s ",
"x H I I H x x m x x x H P P H x x z 4 5 , O O ; ; O . : 3 x U I I ~ ' ^ ' ^ v p s p u t i w w s s s ",
"x 4 4 H H x x m H x x x x P m x g g 4 4 4 3 3 : : : . 4 z C I I I W ^ ~ ^ R C p s s u i i s w w u s ",
"x 4 4 x x x x x P P P x x x x m z g r 4 4 4 : : : 3 3 H P P I I I U ~ ~ R C C b u u i i w w w w s s ",
"H x 4 4 x x g x H P P P I P P P H H m H m H H H x 5 3 I U P I U U ~ ^ ~ R C C R s p i i i w u u u d ",
"x F x 6 x x x k m H P P I I I P P I I I W W ) P P 4 : I I P I W ~ ~ ~ ~ ~ R N R Z s u i w w s u u d ",
"x x 4 x x x x x x H H P P I I I I I W ) W W ) I H x + 4 ) I W W ~ ` ^ ^ ` / C C C p i r y y p p u b ",
"l x 4 4 x 4 x x x m P P I I H H ) I W ) W ) ) ) P x 5 + I W W R I ~ ^ ' ' ' U m p p p p u i a u s N "
};
