/* XPM */
static char *zazr8_t2of2[] = {
/* columns rows colors chars-per-pixel */
"60 60 199 2 ",
"   c black",
".  c #010101",
"X  c #020202",
"o  c #030303",
"O  c #040404",
"+  c #040505",
"@  c #050505",
"#  c #050606",
"$  c #060606",
"%  c #060707",
"&  c #070707",
"*  c #070708",
"=  c #080808",
"-  c #090909",
";  c #090A0A",
":  c #0A0A0A",
">  c #0A0A0B",
",  c #0B0B0B",
"<  c #0D0D0D",
"1  c #0D0D0E",
"2  c #0E0E0E",
"3  c #0F0F0F",
"4  c #0F0F10",
"5  c #0F1010",
"6  c #111111",
"7  c #111212",
"8  c #121313",
"9  c #131313",
"0  c #131414",
"q  c #141414",
"w  c #141515",
"e  c #151516",
"r  c #151616",
"t  c #171717",
"y  c #171818",
"u  c #181919",
"i  c #19191A",
"p  c #1A1A1B",
"a  c #1A1B1B",
"s  c #1B1B1B",
"d  c #1B1B1C",
"f  c #1C1C1C",
"g  c #1C1C1D",
"h  c #1C1D1D",
"j  c #1F1F20",
"k  c #1F2020",
"l  c #202121",
"z  c #212121",
"x  c #212222",
"c  c #222323",
"v  c #242525",
"b  c #252525",
"n  c #272828",
"m  c #282929",
"M  c #2A2B2B",
"N  c #2D2E2E",
"B  c #2F2F30",
"V  c #303031",
"C  c #313232",
"Z  c #323333",
"A  c #333434",
"S  c #353637",
"D  c #363637",
"F  c #363737",
"G  c #383939",
"H  c #38393A",
"J  c #393A3B",
"K  c #3C3D3D",
"L  c #3C3D3E",
"P  c #3D3E3E",
"I  c #3E3F3F",
"U  c #444545",
"Y  c #444546",
"T  c #454647",
"R  c #464748",
"E  c #474849",
"W  c #484949",
"Q  c #484A4A",
"!  c #4B4C4D",
"~  c #4B4D4D",
"^  c #4C4D4E",
"/  c #525354",
"(  c #525454",
")  c #535455",
"_  c #555657",
"`  c #5A5B5C",
"'  c #5B5C5D",
"]  c #5C5E5E",
"[  c #5C5E5F",
"{  c #5D5E5F",
"}  c #616364",
"|  c #626364",
" . c #636565",
".. c #646566",
"X. c #6A6C6D",
"o. c #6B6D6D",
"O. c #6D6E6F",
"+. c #727374",
"@. c #727475",
"#. c #737575",
"$. c #747677",
"%. c #757778",
"&. c #767879",
"*. c #7B7D7E",
"=. c #7C7F80",
"-. c #7D7F80",
";. c #7E8081",
":. c #7E8082",
">. c #818485",
",. c #838586",
"<. c #858788",
"1. c #868889",
"2. c #86888A",
"3. c #87898A",
"4. c #87898B",
"5. c #898B8C",
"6. c #8A8C8D",
"7. c #8A8D8E",
"8. c #8C8F90",
"9. c #8D8F90",
"0. c #8D8F91",
"q. c #8F9293",
"w. c #919395",
"e. c #919495",
"r. c #929596",
"t. c #97999B",
"y. c #979A9B",
"u. c #9DA0A1",
"i. c #9EA0A1",
"p. c #9EA1A2",
"a. c #A2A5A6",
"s. c #A2A5A7",
"d. c #A3A5A7",
"f. c #A4A7A8",
"g. c #A6A8AA",
"h. c #A7AAAC",
"j. c #A8AAAC",
"k. c #A8ABAC",
"l. c #A9ACAE",
"z. c #ADB0B1",
"x. c #B0B3B4",
"c. c #B0B3B5",
"v. c #B2B5B6",
"b. c #B2B5B7",
"n. c #B3B6B7",
"m. c #B3B6B8",
"M. c #B6B9BB",
"N. c #B7BABC",
"B. c #B7BBBC",
"V. c #B8BCBD",
"C. c #BCC0C1",
"Z. c #BDC1C2",
"A. c #BEC1C3",
"S. c #BEC2C3",
"D. c #BFC2C4",
"F. c #C1C4C6",
"G. c #C3C6C8",
"H. c #C3C7C8",
"J. c #C6C9CB",
"K. c #C6CACB",
"L. c #C7CACC",
"P. c #C7CBCC",
"I. c #C8CBCD",
"U. c #C8CCCD",
"Y. c #C9CDCE",
"T. c #CBCED0",
"R. c #CBCFD0",
"E. c #CCD0D2",
"W. c #CDD0D2",
"Q. c #CDD1D2",
"!. c #CFD3D5",
"~. c #D5D9DB",
"^. c #D6DADC",
"/. c #D7DBDC",
"(. c #D7DBDD",
"). c #D8DBDD",
"_. c #D8DCDD",
"`. c #DADDDF",
"'. c #DADEE0",
"]. c #DBDEE0",
"[. c #DCE0E2",
"{. c #DDE0E2",
"}. c #DDE1E3",
"|. c #DEE2E4",
" X c #DFE2E4",
".X c #E1E5E7",
"XX c #E3E7E9",
"oX c #E4E7E9",
"OX c #E4E8EA",
"+X c #E5E9EB",
"@X c #E6EAEC",
"#X c #E7EBED",
"$X c #E8ECEE",
"%X c #E9EDEF",
"&X c #EAEEF0",
"*X c #EBEFF1",
"=X c #EBEFF2",
"-X c #ECF0F2",
";X c #EDF1F3",
/* pixels */
"                                                                                                                        ",
"                                                                                                                        ",
"                                              @ i S ( X.*.<.5.>.%.} E M 4 .                                             ",
"                                        = V X.p.L.}.#X*X-X;X;X;X-X&XOX^.V.7.) g X                                       ",
"                                    t ' g.).*X;X*X&X%X%X%X%X%X%X%X%X%X&X-X;X@XP.6.K =                                   ",
"                                9  .Z.#X;X&X%X%X%X%X%X%X%X%X%X%X%X%X%X%X%X%X%X*X;X{.u.P @                               ",
"                            + T v.#X-X%X%X%X%X%X%X%X%X%X%X%X%X%X%X%X%X%X%X%X%X%X%X&X;X].5.z                             ",
"                          q ;.[.-X%X%X%X%X%X%X%X%X%X%X%X%X%X%X%X%X%X%X%X%X%X%X%X%X%X%X&X=XF.~ O                         ",
"                        n h.%X&X%X%X%X%X%X%X%X%X%X%X%X%X%X%X%X%X%X%X%X%X%X%X%X%X%X%X%X%X%X-X[.@.,                       ",
"                      D A.-X%X%X%X%X%X%X%X%X%X%X%X%X%X%X%X%X%X%X%X%X%X%X%X%X%X%X%X%X%X%X%X%X&X@X7.6                     ",
"                    G J.-X%X%X%X%X%X%X%X%X%X%X%X%X%X%X%X%X%X%X%X%X%X%X%X%X%X%X%X%X%X%X%X%X%X%X&X%Xr.6                   ",
"                  B G.-X%X%X%X%X%X%X%X%X%X%X%X%X%X%X%X%X%X%X%X%X%X%X%X%X%X%X%X%X%X%X%X%X%X%X%X%X&X%X7.,                 ",
"                h n.-X%X%X%X%X%X%X%X%X%X%X%X%X%X%X%X%X%X%X%X%X%X%X%X%X%X%X%X%X%X%X%X%X%X%X%X%X%X%X&X@X#.o               ",
"              - w.*X%X%X%X%X%X%X%X%X%X%X%X%X%X%X%X%X%X%X%X%X%X%X%X%X%X%X%X%X%X%X%X%X%X%X%X%X%X%X%X%X&X[.^               ",
"              { oX&X%X%X%X%X%X%X%X%X%X%X%X%X%X%X%X%X%X%X%X%X%X%X%X%X%X%X%X%X%X%X%X%X%X%X%X%X%X%X%X%X%X-XF.x             ",
"            b P.=X%X%X%X%X%X%X%X%X%X%X%X%X%X%X%X%X%X%X%X%X%X%X%X%X%X%X%X%X%X%X%X%X%X%X%X%X%X%X%X%X%X%X%X=X5.+           ",
"          o 1.=X%X%X%X%X%X%X%X%X%X%X%X%X%X%X%X%X%X%X%X%X%X%X%X%X%X%X%X%X%X%X%X%X%X%X%X%X%X%X%X%X%X%X%X%X&X].I           ",
"          C ~.&X%X%X%X%X%X%X%X%X%X%X%X%X%X%X%X%X%X%X%X%X%X%X%X%X%X%X%X%X%X%X%X%X%X%X%X%X%X%X%X%X%X%X%X%X%X;Xi.=         ",
"        . 3.-X%X%X%X%X%X%X%X%X%X%X%X%X%X%X%X%X%X%X%X%X%X%X%X%X%X%X%X%X%X%X%X%X%X%X%X%X%X%X%X%X%X%X%X%X%X%X&X{.L         ",
"        c E.*X%X%X%X%X%X%X%X%X%X%X%X%X%X%X%X%X%X%X%X%X%X%X%X%X%X%X%X%X%X%X%X%X%X%X%X%X%X%X%X%X%X%X%X%X%X%X%X-X8.X       ",
"        } %X%X%X%X%X%X%X%X%X%X%X%X%X%X%X%X%X%X%X%X%X%X%X%X%X%X%X%X%X%X%X%X%X%X%X%X%X%X%X%X%X%X%X%X%X%X%X%X%X*XT.k       ",
"      & d.;X%X%X%X%X%X%X%X%X%X%X%X%X%X%X%X%X%X%X%X%X%X%X%X%X%X%X%X%X%X%X%X%X%X%X%X%X%X%X%X%X%X%X%X%X%X%X%X%X%X@X_       ",
"      c !.*X%X%X%X%X%X%X%X%X%X%X%X%X%X%X%X%X%X%X%X%X%X%X%X%X%X%X%X%X%X%X%X%X%X%X%X%X%X%X%X%X%X%X%X%X%X%X%X%X%X;Xq..     ",
"      ! +X%X%X%X%X%X%X%X%X%X%X%X%X%X%X%X%X%X%X%X%X%X%X%X%X%X%X%X%X%X%X%X%X%X%X%X%X%X%X%X%X%X%X%X%X%X%X%X%X%X%X-XC.7     ",
"      $.-X%X%X%X%X%X%X%X%X%X%X%X%X%X%X%X%X%X%X%X%X%X%X%X%X%X%X%X%X%X%X%X%X%X%X%X%X%X%X%X%X%X%X%X%X%X%X%X%X%X%X&X/.M     ",
"    X y.;X%X%X%X%X%X%X%X%X%X%X%X%X%X%X%X%X%X%X%X%X%X%X%X%X%X%X%X%X%X%X%X%X%X%X%X%X%X%X%X%X%X%X%X%X%X%X%X%X%X%X%XOXW     ",
"    : c.-X%X%X%X%X%X%X%X%X%X%X%X%X%X%X%X%X%X%X%X%X%X%X%X%X%X%X%X%X%X%X%X%X%X%X%X%X%X%X%X%X%X%X%X%X%X%X%X%X%X%X%X&X}     ",
"    8 D.-X%X%X%X%X%X%X%X%X%X%X%X%X%X%X%X%X%X%X%X%X%X%X%X%X%X%X%X%X%X%X%X%X%X%X%X%X%X%X%X%X%X%X%X%X%X%X%X%X%X%X%X-X&.    ",
"    u U.*X%X%X%X%X%X%X%X%X%X%X%X%X%X%X%X%X%X%X%X%X%X%X%X%X%X%X%X%X%X%X%X%X%X%X%X%X%X%X%X%X%X%X%X%X%X%X%X%X%X%X%X;X,.    ",
"    d E.*X%X%X%X%X%X%X%X%X%X%X%X%X%X%X%X%X%X%X%X%X%X%X%X%X%X%X%X%X%X%X%X%X%X%X%X%X%X%X%X%X%X%X%X%X%X%X%X%X%X%X%X;X5.    ",
"    a R.*X%X%X%X%X%X%X%X%X%X%X%X%X%X%X%X%X%X%X%X%X%X%X%X%X%X%X%X%X%X%X%X%X%X%X%X%X%X%X%X%X%X%X%X%X%X%X%X%X%X%X%X;X2.    ",
"    r H.=X%X%X%X%X%X%X%X%X%X%X%X%X%X%X%X%X%X%X%X%X%X%X%X%X%X%X%X%X%X%X%X%X%X%X%X%X%X%X%X%X%X%X%X%X%X%X%X%X%X%X%X-X=.    ",
"    1 N.-X%X%X%X%X%X%X%X%X%X%X%X%X%X%X%X%X%X%X%X%X%X%X%X%X%X%X%X%X%X%X%X%X%X%X%X%X%X%X%X%X%X%X%X%X%X%X%X%X%X%X%X*Xo.    ",
"    @ d.;X%X%X%X%X%X%X%X%X%X%X%X%X%X%X%X%X%X%X%X%X%X%X%X%X%X%X%X%X%X%X%X%X%X%X%X%X%X%X%X%X%X%X%X%X%X%X%X%X%X%X%X#X(     ",
"      ,.;X%X%X%X%X%X%X%X%X%X%X%X%X%X%X%X%X%X%X%X%X%X%X%X%X%X%X%X%X%X%X%X%X%X%X%X%X%X%X%X%X%X%X%X%X%X%X%X%X%X%X&X}.F     ",
"      [ %X%X%X%X%X%X%X%X%X%X%X%X%X%X%X%X%X%X%X%X%X%X%X%X%X%X%X%X%X%X%X%X%X%X%X%X%X%X%X%X%X%X%X%X%X%X%X%X%X%X%X*XY.s     ",
"      Z '.&X%X%X%X%X%X%X%X%X%X%X%X%X%X%X%X%X%X%X%X%X%X%X%X%X%X%X%X%X%X%X%X%X%X%X%X%X%X%X%X%X%X%X%X%X%X%X%X%X%X;Xf.%     ",
"      5 B.-X%X%X%X%X%X%X%X%X%X%X%X%X%X%X%X%X%X%X%X%X%X%X%X%X%X%X%X%X%X%X%X%X%X%X%X%X%X%X%X%X%X%X%X%X%X%X%X%X%X*XO.      ",
"        -.-X%X%X%X%X%X%X%X%X%X%X%X%X%X%X%X%X%X%X%X%X%X%X%X%X%X%X%X%X%X%X%X%X%X%X%X%X%X%X%X%X%X%X%X%X%X%X%X%X&X`.A       ",
"        J [.&X%X%X%X%X%X%X%X%X%X%X%X%X%X%X%X%X%X%X%X%X%X%X%X%X%X%X%X%X%X%X%X%X%X%X%X%X%X%X%X%X%X%X%X%X%X%X%X;Xl.>       ",
"        > h.-X%X%X%X%X%X%X%X%X%X%X%X%X%X%X%X%X%X%X%X%X%X%X%X%X%X%X%X%X%X%X%X%X%X%X%X%X%X%X%X%X%X%X%X%X%X%X%X#X]         ",
"          / OX%X%X%X%X%X%X%X%X%X%X%X%X%X%X%X%X%X%X%X%X%X%X%X%X%X%X%X%X%X%X%X%X%X%X%X%X%X%X%X%X%X%X%X%X%X%X-XA.y         ",
"          3 z.-X%X%X%X%X%X%X%X%X%X%X%X%X%X%X%X%X%X%X%X%X%X%X%X%X%X%X%X%X%X%X%X%X%X%X%X%X%X%X%X%X%X%X%X%X%X#X..          ",
"            Q  X&X%X%X%X%X%X%X%X%X%X%X%X%X%X%X%X%X%X%X%X%X%X%X%X%X%X%X%X%X%X%X%X%X%X%X%X%X%X%X%X%X%X%X%X-Xb.0           ",
"            $ 0.=X%X%X%X%X%X%X%X%X%X%X%X%X%X%X%X%X%X%X%X%X%X%X%X%X%X%X%X%X%X%X%X%X%X%X%X%X%X%X%X%X%X%X&X[.R             ",
"              z A.-X%X%X%X%X%X%X%X%X%X%X%X%X%X%X%X%X%X%X%X%X%X%X%X%X%X%X%X%X%X%X%X%X%X%X%X%X%X%X%X%X%X&X:.O             ",
"                Y /.*X%X%X%X%X%X%X%X%X%X%X%X%X%X%X%X%X%X%X%X%X%X%X%X%X%X%X%X%X%X%X%X%X%X%X%X%X%X%X%X-Xk.w               ",
"                . | .X&X%X%X%X%X%X%X%X%X%X%X%X%X%X%X%X%X%X%X%X%X%X%X%X%X%X%X%X%X%X%X%X%X%X%X%X%X%X-XS.m                 ",
"                  # @.XX&X%X%X%X%X%X%X%X%X%X%X%X%X%X%X%X%X%X%X%X%X%X%X%X%X%X%X%X%X%X%X%X%X%X%X%X-XK.F                   ",
"                    * +..X*X%X%X%X%X%X%X%X%X%X%X%X%X%X%X%X%X%X%X%X%X%X%X%X%X%X%X%X%X%X%X%X%X%X-XG.H                     ",
"                      # | (.-X%X%X%X%X%X%X%X%X%X%X%X%X%X%X%X%X%X%X%X%X%X%X%X%X%X%X%X%X%X%X&X*Xm.B                       ",
"                        X U A.=X&X%X%X%X%X%X%X%X%X%X%X%X%X%X%X%X%X%X%X%X%X%X%X%X%X%X%X%X=XOXe.h                         ",
"                            l 9.|.-X%X%X%X%X%X%X%X%X%X%X%X%X%X%X%X%X%X%X%X%X%X%X%X%X&X=XI.{ ;                           ",
"                              % E z.OX;X&X%X%X%X%X%X%X%X%X%X%X%X%X%X%X%X%X%X%X%X*X-X~.1.v                               ",
"                                  3 / j.{.-X-X&X%X%X%X%X%X%X%X%X%X%X%X%X%X*X;X%XW.4.C O                                 ",
"                                      > J -.M._.$X;X;X-X=X*X*X*X-X-X;X-XXXW.s.| c o                                     ",
"                                          . 2 N ` ,.a.N.H.T.Q.U.D.x.t.$.E j %                                           ",
"                                                    @ < e p f u 8 ; X                                                   ",
"                                                                                                                        ",
"                                                                                                                        "
};
