/* XPM */
static char *ui8he_f4avn[] = {
/* columns rows colors chars-per-pixel */
"50 50 70 1 ",
"  c #061F6E",
". c #07206F",
"X c #0B2471",
"o c #102774",
"O c #132A75",
"+ c #172E78",
"@ c #182F78",
"# c #1D337B",
"$ c #21377D",
"% c #23397F",
"& c #253B80",
"* c #293E82",
"= c #2D4285",
"- c #304587",
"; c #324788",
": c #3A4D8C",
"> c #3E518F",
", c #425591",
"< c #465893",
"1 c #4C5E97",
"2 c #4E5F98",
"3 c #4F6098",
"4 c #53649B",
"5 c #57689D",
"6 c #596A9E",
"7 c #5E6EA1",
"8 c #6473A4",
"9 c #6C7BA9",
"0 c #717FAC",
"q c #7482AE",
"w c #7784B0",
"e c #7986B1",
"r c #7D8AB3",
"t c #828EB6",
"y c #8390B7",
"u c #8692B9",
"i c #8A96BB",
"p c #8E99BD",
"a c #919CBF",
"s c #939EC0",
"d c #97A1C2",
"f c #9BA5C5",
"g c #9FA8C7",
"h c #A3ACCA",
"j c #A7B0CC",
"k c #AAB3CE",
"l c #AEB6D0",
"z c #B0B7D1",
"x c #B3BBD3",
"c c #B8BFD6",
"v c #B9C0D6",
"b c #BDC4D9",
"n c #C1C7DB",
"m c #C4CADD",
"M c #C8CEDF",
"N c #CACFE0",
"B c #CDD2E2",
"V c #D1D6E4",
"C c #D5D9E6",
"Z c #D7DBE8",
"A c #DDE0EB",
"S c #E2E5EE",
"D c #E5E7F0",
"F c #E6E9F1",
"G c #EBEDF3",
"H c #EFF0F6",
"J c #F1F2F7",
"K c #F4F5F9",
"L c #F7F8FA",
"P c #FEFEFE",
/* pixels */
"XXX...X..X.X..X...X.X...X.....X.X..X..X...X.X..XXX",
"X#132221141222332221144334444221212212332221333,OX",
"X1JLLLLLLLLLLLLLLLPLKFZMbvbmCDJPPLLLLLLLLLLLLLPB#X",
"X1LPPPPPPPPPPPPPPGma7:*#OOO#&;4tcDPPPPPPPPPPPPPC$X",
".1LPPPPPPPPPPPPCi>@XX@#&*==*#OX O=0bKPPPPPPPPPPC#X",
"X4LPPPPPPPPPPZq*XXXO2txZDDSSZmh0:O +5vLPPPPPPPPC$X",
".1LPPPPPPPPKf=XXXXXXXO-9mLPPPPPPGx5O #9APPPPPPPC#X",
"X2LPPPPPPPA8O.X=4quue6=X@9ZPPPPPPPKk=..:vPPPPPPC$X",
".2LPPPPPPn:Xo1gALPPPPLSh>X-xLPPGAAHPm*XX$gPPPPPC#X",
".2LPPPPPc*.=gJPPPPPPPPPPDqO#hVq;%%:pJsOXX@sLPPPC$X",
"X3LPPPPc&X4CPPPPPPPPPPPPPLpO#*#4tt<O9A:X,o+hPPPC$X",
".3LPPPM=X9GPPPPPPPPPPPPPPPLtXXdLPPJrOlrXf8X*BPPC#X",
".2LPPF<XrKPPPPPPPPPPPPKJLPPG1XhPfuKG:9hXhA;.7KPC#X",
".2LPPyXqVxarracDPPPHl91>7cPPko0G=*DL18xOkPgOOcPC$X",
"X2LPB%O<*X.  .O;uFZ4O*,>##fPG:;A1%Nl#hs@MPJ4.6LC$X",
".1LPqXX.O,9rq7;XX,:#pAJJV7%NP9Xkm,;:tA,,HPPxO#VZ#X",
"X1LZ&XO6bJPPPPGd&.XtPPPLPH19Pi <CDVZZ8@kPPPJ,.pC#X",
".2PaXOrJPPPPPPPPc&XsPKr0HPd>Ja.X&607*%gPPPPPi.4B$X",
".3H3 8KPPPPPPPPPPdX6PZ$OMPp;Hr.;1=-<rnZnkhgkiX=x$X",
".4B%$VPPPKBzcZPPPG,%ZH;Ocb=8G<OcLGSvt1%OoXXoOXOa%X",
".4hX6LPPB5$##&uJPPaXdPh*&#<ZfX8LKx5#.o#$$###XXXq%X",
"X3rXaPPm=3lBbe$iPPMO1JPVgxFk#;ZB6OX;rcVCCVBMx;X5%X",
".17XxPF,4GPPPPg=ZPZ#OiSLHVr+=cd&X>hFPPPPPPPPP9X<$X",
".<1OMPkOxPPSmJJ<kPB#XX=<;@X3x9X#uFPPPPPPPPPPPp.:#X",
"X,:#VPt#CPG2+kL1fPkX18=%-6jM2.;cPPPPPPLDmljhh9X;#X",
".>;#VPu@BPZ%Xkm*nP9XkPDAFLB>.1CPPPPPDj8=OXXXXoX:#X",
"X>:OBPhXdPK9O,;qLB#1GPPPPM;X8DPPPPHd:XX#>684>#X<$X",
".,>OvPA=>DPJxpcKF3#bPPPPm-XqGPPPPB3XX<sVJLPLJeX6%X",
".14.aPPsoqJPPPPA6OuPPPPx*OtKPPPPl=.:hJPPPPPPPqXq%X",
".39.<DPKr#6vZBp=OrKPPJa##fLPPPLf#X9SPPPPPPPPL4Os%X",
"X4aXX4CPLh,$&##1kKPLM6X=xLPPPLaOOpKPPPPPPPPPA=*x$X",
".3v#XX=sSPJNxcCKPGc9#X5VPPPPKuO#gPPPPPPJMs94:X1B#X",
".3S;XX.X-9dxbncd9;OX=dJPPPPHqX%jPPPPPGg1O. .XXrC$X",
"X1L9X61O  XXXOX. X:uAPPPPPZ7X*cPPPPPc<XX=8ui%OvZ#X",
"X1PcO7Dmp7<;=;,5tcFPPPPPPc:X,MPPPPGr+X,hSPPM#:GZ$X",
".3LH<OjPPPJGDGJLPPPPPPPSr#X7APPPPZ4X%pGPPPL8 tPC$X",
".2LPhX=MPPPPPPPPPPPPPDf;.%sJPPPPm:.:mPPPPPv@&CPC#X",
"X2LPH1 =aZLPPPPPPPHmt;XO7BPPPPPx=.1ZPPPPPD<XrPPC$X",
".2LPPb#XX*3rfkkgu8>O.#6cKPPPPPh$X6SPPPPPK9.:SPPC#X",
".2LPPPsOXX. .XX   #>rmLPPPPPLg#X8DPPPPPLtO$vPPPC$X",
".1LPPPLrXX;75468egBHPPPPPPPJuOX9GPPPPPJrX@fPPPPC#X",
"X4LPPPPJqO$tZPPPPPPPPPPPPLm5XOwJPPPPPC7X#fPPPPPC$X",
".1LPPPPPKu@X;tBJPPPPPPPGx7#.#iKPPPPGf=.-lPPPPPPC#X",
"X2LPPPPPPLx>XX#<0yiiuq7:O.X;kPPPPSg,XO8ZPPPPPPPC$X",
".2LPPPPPPPPGd>O .XXXX.XXX$qCJDBg8=XO4xKPPPPPPPPC#X",
".2LPPPPPPPPPPGk7-OX..XXXX-74,=+.X*9cJPPPPPPPPPPC$X",
".1LPPPPPPPPPPPPPDms91;*#OoXOO%>9kSLPPPPPPPPPPPPC#X",
"X1DGGGGGGGGGGGGFGHGFACMvkhghknZFHGGGGGGGGGGGGGGm#X",
"XO;;;-;;-;;;;;-;;;-;;;;;;;:;;:;;;-;;--;;-;;--;;=XX",
"XXXXXX.XXXX.XXX.XXX.XXXXXXXXXX.XXX.XXXXXX.XXXX.XOX"
};
